<?xml version="1.0" encoding="utf-8"?>
<!-- Generator: Adobe Illustrator 23.0.2, SVG Export Plug-In . SVG Version: 6.00 Build 0)  -->
<svg version="1.1" id="Layer_1" xmlns="http://www.w3.org/2000/svg" xmlns:xlink="http://www.w3.org/1999/xlink" x="0px" y="0px"
	 viewBox="0 0 500 500" style="enable-background:new 0 0 500 500;" xml:space="preserve">
<style type="text/css">
	.st0{fill:#9AD50F;}
	.st1{fill:#CE76E1;}
	.st2{fill:#FFEB00;}
	.st3{fill:#FFAAD4;}
	.st4{fill:#FF5894;}
	.st5{fill:#FFAAD5;}
	.st6{fill:#FF2875;}
	.st7{fill:#FFFFFF;}
	.st8{fill:#603813;}
	.st9{fill:#FCEE21;}
	.st10{fill:#A8784C;}
	.st11{fill:#F0CE00;}
	.st12{fill:#EFCE00;}
</style>
<path class="st10" d="M406.02,410.48c0.11,0.13,0.22,0.27,0.33,0.4c-0.15,0.05-0.29,0.11-0.42,0.18
	C405.97,410.87,406,410.67,406.02,410.48z"/>
<path class="st10" d="M403.08,407.36c0-0.06,0-0.13,0-0.19c0.02-0.06,0.04-0.11,0.07-0.17c0.1,0.13,0.21,0.25,0.31,0.38
	C403.33,407.36,403.21,407.35,403.08,407.36z"/>
<path class="st10" d="M133.59,453.57c0.02-0.06,0.04-0.13,0.06-0.19c0.43,0.38,0.86,0.76,1.3,1.14
	C134.5,454.2,134.04,453.89,133.59,453.57z"/>
<path class="st10" d="M96.97,409.07c-0.11-0.39-0.23-0.78-0.35-1.18c0.01-0.04,0.02-0.09,0.02-0.13c0.2,0.46,0.4,0.91,0.6,1.36
	C97.16,409.1,97.07,409.08,96.97,409.07z"/>
<path class="st10" d="M459.17,154.66c0-28.57-11.37-54.64-29.99-74.26c0.31-0.38,0.63-0.76,0.94-1.14c0.49-0.59,0.91-1.25,1.36-1.87
	c0.68-0.94,1.34-1.93,1.95-2.92c1.45-2.35,2.83-4.72,4.17-7.14c0.58-1.05,1.12-2.13,1.64-3.21c0.61-1.25,1.21-2.5,1.79-3.76
	c1.05-2.31,1.98-4.67,2.85-7.06c0.49-1.34,0.97-2.68,1.46-4.02c0.4-1.1,0.82-2.21,1.18-3.33c0.41-1.29,0.82-2.57,1.16-3.89
	c0.35-1.35,0.65-2.69,0.94-4.05c0.54-2.52,0.96-5.07,1.25-7.63c0.28-2.53,0.4-5.09,0.47-7.63c0.04-1.36,0.07-2.73,0.09-4.09
	c0.02-1.26-0.08-2.52-0.18-3.78c-0.09-1.18-0.25-2.36-0.42-3.54c-0.1-0.72-0.21-1.46-0.45-2.15c-0.19-0.53-0.5-1.11-0.97-1.45
	c-0.25-0.17-0.49-0.36-0.77-0.48c-0.42-0.18-0.88-0.26-1.33-0.29c-0.96-0.06-1.88,0.13-2.81,0.31c-0.61,0.12-1.23,0.28-1.82,0.46
	c-1.22,0.37-2.46,0.75-3.64,1.26c-0.63,0.27-1.26,0.55-1.88,0.82c-0.72,0.31-1.42,0.72-2.11,1.08c-1.05,0.54-2.09,1.12-3.1,1.75
	c-4.32,2.68-8.57,5.46-12.93,8.06c-2.23,1.33-4.45,2.67-6.67,4.01c-2.23,1.34-4.45,2.72-6.74,3.97c-1.25,0.68-2.49,1.4-3.76,2.06
	c-1.26,0.66-2.53,1.31-3.8,1.97c-4.11,2.04-8.22,4.11-12.46,5.89c-4.49,1.89-9.02,3.65-13.6,5.3c-2.11,0.72-4.22,1.43-6.33,2.14
	c-6.63-1.15-13.45-1.78-20.42-1.78c-36.72,0-71.55,17.12-93.16,45.81c-21.47-30.54-57.11-48.78-95.32-48.78
	c-9.31,0-18.35,1.09-27.02,3.11c-2.45-0.81-4.89-1.64-7.34-2.47c-4.58-1.65-9.11-3.41-13.6-5.3c-4.23-1.79-8.34-3.85-12.46-5.89
	c-1.26-0.66-2.53-1.31-3.8-1.97c-1.27-0.66-2.51-1.37-3.76-2.06c-2.29-1.25-4.51-2.63-6.74-3.97c-2.22-1.34-4.44-2.68-6.67-4.01
	c-4.36-2.6-8.62-5.39-12.93-8.06c-1-0.62-2.04-1.21-3.1-1.75c-0.7-0.36-1.39-0.77-2.11-1.08c-0.63-0.27-1.26-0.55-1.88-0.82
	c-1.17-0.51-2.41-0.89-3.64-1.26c-0.6-0.18-1.21-0.34-1.82-0.46c-0.93-0.19-1.86-0.37-2.81-0.31c-0.45,0.03-0.92,0.11-1.33,0.29
	c-0.28,0.12-0.52,0.3-0.77,0.48C43.5,6.11,43.19,6.69,43,7.22c-0.24,0.69-0.35,1.43-0.45,2.15c-0.17,1.17-0.32,2.35-0.42,3.54
	c-0.1,1.26-0.2,2.52-0.18,3.78c0.02,1.36,0.05,2.73,0.09,4.09c0.08,2.54,0.19,5.1,0.47,7.63c0.29,2.56,0.71,5.11,1.25,7.63
	c0.29,1.36,0.6,2.7,0.94,4.05c0.34,1.31,0.75,2.59,1.16,3.89c0.35,1.12,0.78,2.22,1.18,3.33c0.49,1.34,0.97,2.68,1.46,4.02
	c0.86,2.39,1.79,4.75,2.85,7.06c0.58,1.26,1.18,2.51,1.79,3.76c0.52,1.08,1.07,2.16,1.64,3.21c1.33,2.42,2.72,4.79,4.17,7.14
	c0.61,0.99,1.27,1.98,1.95,2.92c0.45,0.62,0.87,1.28,1.36,1.87c0.45,0.54,0.89,1.08,1.34,1.62c0.38,0.46,0.78,0.89,1.19,1.33
	c0.42,0.44,0.82,0.92,1.26,1.34c0.19,0.18,0.39,0.35,0.58,0.53c-16.12,19-25.81,43.23-25.81,69.59c0,30.73,13.16,58.56,34.34,78.59
	c-12.51,24.19-19.13,50.86-19.13,78.48c0,34.16,10.09,66.87,28.97,95.21c1.57-1.68,3.12-3.38,4.64-5.11
	c-0.08,0.09-0.16,0.18-0.24,0.27c0.81-0.93,1.63-1.85,2.45-2.78c3.97-4.59,7.89-9.21,11.66-13.97c3.85-4.87,7.53-9.86,11.09-14.95
	c1.01-1.45,2-2.91,2.99-4.38c1.58-2.42,3.15-4.84,4.7-7.29c1.54-2.43,2.98-4.93,4.44-7.42c2.75-4.69,5.25-9.53,7.72-14.36
	c1.51-3.08,2.99-6.17,4.41-9.28c1.31-2.89,2.46-5.86,3.51-8.85c0.33-1.02,0.64-2.04,0.89-3.09c0.04-0.22,0.08-0.45,0.11-0.68
	c0,0,0-0.01,0-0.01c0-1.53,1.27-2.8,2.8-2.8c1.52,0,2.8,1.27,2.8,2.8c0,1.26-0.38,2.51-0.72,3.71c-0.4,1.39-0.88,2.77-1.39,4.13
	c-1.09,2.91-2.29,5.77-3.58,8.6c-2.44,5.35-5.09,10.63-7.9,15.8c-3,5.51-6.13,10.93-9.49,16.23c-3.33,5.26-6.86,10.39-10.5,15.43
	c-5.32,7.36-11.01,14.46-16.95,21.33c0.18,0.18,0.34,0.38,0.49,0.6c0.25,0.38,0.35,0.86,0.48,1.29c0.15,0.52,0.32,1.03,0.49,1.54
	c1.12,3.19,2.51,6.26,4,9.3c0.77,1.47,1.56,2.92,2.39,4.35c0.75,1.29,1.58,2.54,2.39,3.8c1.26,1.82,2.57,3.6,3.93,5.35
	c1.35,1.73,2.78,3.39,4.2,5.06c-0.02-0.02-0.03-0.04-0.05-0.05c1.61,1.82,3.22,3.63,4.88,5.4c1.8,1.91,3.65,3.79,5.51,5.65
	c3.56,3.57,7.29,6.97,11.06,10.32c4.57,3.95,9.2,7.81,13.95,11.54c4.69,3.68,9.5,7.2,14.4,10.59c0.4,0.28,0.81,0.56,1.21,0.84
	c0.65,0.29,1.32,0.56,1.97,0.84c0.12-0.66,0.27-1.32,0.47-2c0.45-1.47,0.92-2.77,1.43-3.97c1.53-3.59,3.66-5.98,6.34-7.1
	c1.87-0.78,3.8-1.02,5.72-0.69c1,0.17,2.01,0.49,3.16,1.02c1.41,0.64,2.58,1.51,3.61,2.29c0.88-0.84,1.85-1.48,2.91-1.93
	c1.87-0.79,3.79-1.02,5.72-0.69c1,0.17,2.01,0.49,3.16,1.02c1.35,0.62,2.48,1.44,3.47,2.18c0.98-1.01,2.07-1.77,3.27-2.28
	c1.87-0.79,3.79-1.02,5.72-0.7c1.01,0.17,2.01,0.5,3.16,1.02c1.4,0.63,2.55,1.49,3.57,2.26l0.22,0.16c0.6,0.45,1.28,1,1.87,1.76
	c0.64,0.82,1.09,1.67,1.41,2.66c0.26,0.8,0.33,1.55,0.38,2.16l0.04,0.4c0.13,1.14,0.26,2.28,0.38,3.42c0.12,0.87,0.22,1.83,0.29,2.8
	c0.03,0.47,0.05,0.93,0.05,1.39h0c0.03,0.58,0.05,1.17,0.06,1.76l0,0.27c0.01,0.71,0.02,1.59-0.19,2.55
	c-0.06,0.35-0.16,0.69-0.29,1.02c-0.07,0.51-0.15,1.03-0.23,1.54c-0.15,0.87-0.38,1.73-0.66,2.59c8.8,1.11,17.74,1.68,26.78,1.68
	c4.29,0,8.56-0.14,12.8-0.39c-0.39-0.61-0.75-1.22-1.05-1.86c-1.14-2.42-1.4-5-1.51-7.2c-0.04-0.67,0.01-1.36,0.06-2.04
	c0.07-0.85,0.14-1.51,0.23-2.16c0.18-1.3,0.39-2.76,0.84-4.23c0.45-1.47,0.92-2.77,1.43-3.97c1.53-3.58,3.66-5.97,6.34-7.1
	c1.86-0.79,3.79-1.02,5.72-0.69c1,0.17,2.01,0.49,3.16,1.02c1.41,0.64,2.57,1.51,3.6,2.28l0.01,0.01c0.88-0.84,1.85-1.48,2.9-1.93
	c1.86-0.78,3.79-1.02,5.72-0.69c1,0.17,2.01,0.49,3.16,1.02c1.35,0.62,2.48,1.44,3.47,2.18c0.98-1.01,2.07-1.77,3.27-2.28
	c1.87-0.79,3.79-1.02,5.72-0.7c1.02,0.18,2.02,0.5,3.16,1.02c1.4,0.64,2.55,1.5,3.57,2.26l0.22,0.16c0.56,0.41,1.27,0.99,1.87,1.76
	c0.64,0.82,1.09,1.67,1.41,2.66c0.26,0.81,0.33,1.56,0.38,2.17l0.04,0.4c0.13,1.14,0.26,2.28,0.38,3.42
	c0.12,0.85,0.22,1.82,0.29,2.8c0.03,0.37,0.04,0.74,0.04,1.12c8.11-2.75,16.02-5.99,23.67-9.72c4.99-3.55,9.82-7.3,14.45-11.31
	c2.71-2.4,5.4-4.82,7.99-7.36c2.79-2.74,5.5-5.55,8.1-8.46c5.42-6.28,10.43-12.89,15.15-19.72c1.34-1.99,2.67-3.98,3.92-6.03
	c0.96-1.57,1.87-3.15,2.76-4.75c1.19-2.5,2.31-5.03,3.25-7.64c0.09-0.28,0.19-0.55,0.27-0.84c0.06-0.57,0.3-1.1,0.67-1.52
	c-0.07-0.08-0.13-0.16-0.19-0.24c-1.99-2.48-3.93-5-5.88-7.52c-3.68-4.75-7.17-9.66-10.56-14.63c-3.48-5.1-6.8-10.3-10.03-15.56
	c-3.25-5.29-6.35-10.66-9.38-16.08c-2.93-5.23-5.66-10.57-8.33-15.93c-1.34-2.68-2.56-5.43-3.8-8.16c-1.22-2.69-2.31-5.46-3.61-8.12
	c-0.01-0.02-0.02-0.03-0.03-0.05c0.01,0.01,0.01,0.02,0.02,0.02c-0.02-0.03-0.03-0.06-0.05-0.09c-0.29-0.52-0.42-1.12-0.33-1.73
	c0.21-1.52,1.64-2.58,3.15-2.39c0.74,0.09,1.37,0.5,1.84,1.06c0.25,0.3,0.41,0.69,0.58,1.04c0.44,0.89,0.83,1.8,1.23,2.71
	c0.81,1.83,1.59,3.66,2.41,5.48c1.71,3.8,3.5,7.56,5.36,11.29c1.32,2.56,2.62,5.13,4,7.65c1.57,2.88,3.16,5.76,4.77,8.63
	c1.45,2.59,2.98,5.15,4.51,7.7c1.46,2.45,2.93,4.9,4.46,7.31c2.11,3.33,4.25,6.64,6.41,9.94c1.61,2.37,3.22,4.73,4.89,7.06
	c1.97,2.76,3.98,5.48,6.02,8.2c3.45,4.62,7.04,9.15,10.72,13.6c2.08,2.52,4.17,5.03,6.28,7.52c21.89-29.83,33.66-65.03,33.66-101.92
	c0-27.67-6.65-54.39-19.2-78.61C447.3,210.39,459.17,183.84,459.17,154.66z M191.09,377.41c-0.81,1.05-1.97,1.84-3.32,1.84
	c-0.07,0-0.14,0-0.22-0.01c-1.34-0.08-2.32-1.08-2.84-2.24c-0.55-1.2-0.94-2.47-1.45-3.69c-0.76-1.74-1.59-3.44-2.54-5.09
	c-1.01-1.75-2.02-3.49-3-5.26c-1-1.8-2-3.6-2.94-5.43c-0.49-0.95-0.97-1.9-1.42-2.87c-0.33-0.7-0.62-1.44-0.96-2.14
	c-0.19-0.29-0.33-0.62-0.39-0.98c-0.02-0.13-0.05-0.26-0.05-0.4c-0.02-1.25,0.63-2.41,1.85-2.84c0.3-0.11,0.61-0.16,0.92-0.16
	c1.03,0,2.03,0.57,2.51,1.52c0.2,0.39,0.36,0.8,0.53,1.2c0.27,0.61,0.56,1.21,0.84,1.82c0.48,1.01,1,2.01,1.53,3.01
	c1.17,2.2,2.37,4.38,3.6,6.54c1.16,2.04,2.36,4.04,3.41,6.13c0.48,0.96,0.92,1.94,1.34,2.92c1.28-2.01,2.49-4.08,3.7-6.13
	c2.21-3.91,4.13-7.95,5.98-12.04c0.63-1.39,2.41-1.94,3.75-1.28c1.4,0.69,1.91,2.36,1.28,3.75c-1.09,2.41-2.2,4.81-3.38,7.17
	c-1.29,2.58-2.71,5.09-4.19,7.57c-0.71,1.18-1.43,2.36-2.16,3.53C192.71,375.08,191.95,376.28,191.09,377.41z M229.82,407.24
	c-1.63,2.83-3.33,5.63-4.96,8.45c-1.47,2.61-2.87,5.25-4.21,7.93c-0.66,1.32-1.31,2.63-1.97,3.94c-0.32,0.63-0.67,1.25-1.01,1.88
	c-0.67,1.23-1.4,2.57-2.53,3.44c-0.54,0.41-1.19,0.72-1.88,0.77c-0.07,0-0.14,0.01-0.21,0.01c-0.66,0-1.39-0.21-1.92-0.56
	c-0.92-0.61-1.39-1.63-1.83-2.6c-0.6-1.32-1.2-2.65-1.79-3.98c-1.22-2.74-2.42-5.5-3.68-8.23c-1.97-4.26-4.15-8.42-6.46-12.5
	c-0.45-0.75-0.9-1.51-1.42-2.23c-0.6-0.49-1.01-1.23-1.06-1.99c-0.05-0.73,0.19-1.47,0.67-2.03c0.48-0.56,1.12-0.83,1.84-0.94
	c0.86-0.11,1.59,0.2,2.2,0.72c1.38,0.19,2.4,1.6,2.31,2.95c0,0.07-0.01,0.14-0.02,0.21c0.56,0.93,1.1,1.87,1.62,2.82
	c1.4,2.58,2.78,5.18,4.05,7.83c1.27,2.63,2.46,5.29,3.64,7.96c0.6,1.36,1.21,2.73,1.82,4.09c0.09,0.2,0.18,0.39,0.26,0.59
	c1.76-3.35,3.38-6.78,5.19-10.11c2.12-3.9,4.46-7.66,6.68-11.51c0.76-1.32,2.67-1.59,3.88-0.79c0.61,0.4,1.04,1.04,1.19,1.75
	C230.39,405.88,230.2,406.58,229.82,407.24z M252.19,372.05c-0.81,1.3-1.72,2.54-2.65,3.75c-1.39,1.82-3.06,3.63-5.24,4.46
	c-0.44,0.17-0.94,0.24-1.43,0.24c-0.28,0-0.56-0.03-0.82-0.08c-0.76-0.15-1.39-0.55-1.97-1.04c-0.48-0.4-0.83-0.98-1.16-1.5
	c-0.2-0.31-0.4-0.64-0.6-0.96c-0.76-1.23-1.49-2.48-2.21-3.74c-1.79-3.13-3.3-6.44-4.67-9.77c-1.35-3.28-2.68-6.59-3.67-9.99
	c0,0.01,0,0.02,0.01,0.02c-0.01-0.02-0.02-0.04-0.02-0.06c0,0.01,0.01,0.02,0.01,0.04c0,0,0-0.01-0.01-0.01c0,0,0,0,0,0c0,0,0,0,0,0
	c0-0.02-0.01-0.03-0.01-0.04c-0.03-0.08-0.05-0.16-0.07-0.24c0-0.01,0-0.01,0-0.02c0,0,0,0.01,0,0.01
	c-0.28-1.22,0.28-2.55,1.44-3.15c1.35-0.69,3.09-0.14,3.77,1.22c0.15,0.3,0.23,0.63,0.32,0.95c0.57,1.92,1.31,3.79,2.01,5.66
	c0.68,1.82,1.43,3.61,2.2,5.39c0.75,1.68,1.5,3.35,2.33,4.98c0.8,1.58,1.7,3.11,2.6,4.63c0.31,0.52,0.63,1.05,0.96,1.56
	c0.16-0.15,0.33-0.3,0.49-0.46c0.72-0.77,1.38-1.6,2.03-2.43c1.99-2.84,3.71-5.84,5.49-8.82c1.74-2.92,3.55-5.8,5.34-8.69
	c0.8-1.29,2.64-1.61,3.88-0.79c1.3,0.86,1.59,2.58,0.79,3.88c-1.53,2.48-3.04,4.96-4.58,7.44
	C255.19,366.99,253.74,369.55,252.19,372.05z M299.14,406.57c-3.05,5.36-6.14,10.69-9.26,16.01c-1.56,2.66-3.12,5.31-4.68,7.96
	c-0.35,0.59-0.71,1.18-1.07,1.76c-0.75,1.23-1.5,2.48-2.49,3.53c-0.51,0.54-1.12,1.02-1.82,1.27c-0.36,0.12-0.73,0.18-1.1,0.18
	c-0.29,0-0.58-0.03-0.87-0.09c-1.4-0.28-2.22-1.51-2.79-2.71c-2.12-4.39-4.23-8.79-6.39-13.16c-1.19-2.42-2.38-4.84-3.55-7.27
	c-0.52-1.1-1.04-2.2-1.56-3.29c-0.55-1.17-1.06-2.36-1.68-3.49c-0.06-0.06-0.12-0.12-0.18-0.18c-0.5-0.56-0.76-1.3-0.71-2.05
	c0.08-1.37,1.29-2.63,2.69-2.63c0.09,0,0.18,0.01,0.28,0.02c0.4,0.05,0.72,0.14,1.1,0.3c0.65,0.27,1.1,0.89,1.48,1.43
	c0.5,0.71,0.83,1.56,1.21,2.33c0.62,1.28,1.21,2.58,1.81,3.87c1.16,2.47,2.37,4.92,3.58,7.36c1.26,2.56,2.52,5.12,3.76,7.68
	c0.73,1.49,1.43,3,2.15,4.49c0.47-0.74,0.91-1.49,1.35-2.24c0.61-1.03,1.21-2.05,1.82-3.08c1.32-2.24,2.64-4.49,3.96-6.73
	c2.41-4.11,4.78-8.25,7.16-12.38c-0.06,0.1-0.12,0.21-0.18,0.31c0.32-0.56,0.63-1.11,0.95-1.66c0.37-0.65,0.86-1.15,1.57-1.41
	c0.7-0.25,1.5-0.21,2.17,0.12C299.17,403.47,299.9,405.24,299.14,406.57z M328.05,354.98c-1.68,2.44-3.33,4.88-4.9,7.39
	c-1.55,2.46-2.99,4.99-4.46,7.51c-1.52,2.62-3.23,5.09-5.19,7.41c-0.5,0.59-1.06,1.15-1.62,1.69c-1.1,1.06-2.53,2.02-4.11,2.02
	c-0.07,0-0.14,0-0.21-0.01c-1.44-0.08-2.74-0.66-3.62-1.83c-0.72-0.95-1.22-2.04-1.76-3.09c-1.93-3.76-3.91-7.51-5.84-11.27
	c-0.98-1.91-1.94-3.83-2.81-5.79c-0.44-0.98-0.86-1.97-1.35-2.92c-0.24-0.48-0.49-0.96-0.75-1.44c-0.33-0.61-0.56-1.18-0.54-1.9
	c0.04-1.47,1.39-2.62,2.81-2.62c0.05,0,0.11,0,0.16,0c1.07,0.07,1.92,0.72,2.34,1.61c-0.01-0.03-0.01-0.06-0.02-0.09
	c0.41,0.84,0.88,1.64,1.28,2.49c0.48,1.03,0.94,2.08,1.42,3.11c0.87,1.92,1.82,3.81,2.8,5.68c1.08,2.06,2.16,4.12,3.23,6.19
	c1.01,1.96,1.96,3.95,3.03,5.89c0.13-0.12,0.26-0.24,0.38-0.36c0.49-0.52,0.96-1.03,1.42-1.57c0.45-0.54,0.88-1.1,1.31-1.66
	c1.08-1.56,2.11-3.14,3.07-4.78c0.98-1.69,1.97-3.38,2.97-5.06c1.97-3.31,4.12-6.5,6.3-9.67c0.86-1.26,2.59-1.64,3.88-0.79
	C328.52,351.93,328.92,353.73,328.05,354.98z"/>
<path class="st7" d="M326.13,70.79c-30.58,0-57.7,14.45-74.39,36.6c-16.5-23.49-44.47-38.97-76.14-38.97
	c-50.61,0-91.78,39.54-91.78,88.13s41.17,88.13,91.78,88.13c30.58,0,57.7-14.45,74.39-36.6c16.5,23.49,44.47,38.97,76.14,38.97
	c50.61,0,91.78-39.54,91.78-88.13S376.73,70.79,326.13,70.79z"/>
<g>
	<path class="st11" d="M222.63,479.1c0-0.05-0.01-0.11-0.01-0.16c0-0.39-0.02-0.79-0.05-1.18c-0.06-0.9-0.16-1.79-0.28-2.68
		c-0.12-1.13-0.24-2.25-0.38-3.38c-0.07-0.61-0.09-1.31-0.28-1.9c-0.19-0.6-0.45-1.09-0.84-1.58c-0.33-0.42-0.77-0.79-1.2-1.1
		c-1-0.74-2.01-1.52-3.15-2.04c-0.73-0.33-1.5-0.62-2.3-0.75c-1.31-0.22-2.57-0.04-3.78,0.47c-2.09,0.88-3.43,2.93-4.33,4.94
		c-0.01-0.05-0.01-0.11-0.03-0.16c-0.19-0.6-0.45-1.09-0.84-1.58c-0.33-0.42-0.77-0.79-1.2-1.1c-1-0.74-2.01-1.52-3.15-2.04
		c-0.73-0.33-1.5-0.62-2.3-0.75c-1.31-0.22-2.57-0.04-3.78,0.47c-1.93,0.81-3.21,2.63-4.1,4.48c-0.01-0.05-0.01-0.1-0.03-0.15
		c-0.19-0.6-0.45-1.09-0.84-1.58c-0.33-0.42-0.77-0.79-1.2-1.1c-1-0.74-2.01-1.52-3.15-2.04c-0.73-0.33-1.5-0.62-2.3-0.75
		c-1.31-0.22-2.57-0.04-3.78,0.47c-2.2,0.92-3.58,3.15-4.48,5.25c-0.51,1.18-0.93,2.38-1.3,3.61c-0.36,1.19-0.54,2.46-0.72,3.69
		c-0.08,0.59-0.15,1.18-0.19,1.77c-0.05,0.59-0.1,1.19-0.07,1.78c0.1,1.99,0.32,4.04,1.18,5.87c0.8,1.69,1.97,3.2,3.32,4.49
		c0.48,0.46,0.96,0.94,1.5,1.35c0.52,0.4,1.06,0.76,1.64,1.05c0.61,0.3,1.23,0.48,1.9,0.59c0.2,0.03,0.4,0.05,0.6,0.05
		c0.62,0,1.25-0.13,1.82-0.31c0.69-0.21,1.4-0.52,1.99-0.93c1.16-0.78,2.22-1.71,2.87-2.97c0.21-0.4,0.36-0.83,0.53-1.24
		c0.71,1.13,1.58,2.17,2.54,3.09c0.48,0.46,0.96,0.94,1.5,1.35c0.52,0.4,1.06,0.76,1.64,1.05c0.61,0.3,1.23,0.48,1.9,0.59
		c0.2,0.03,0.4,0.05,0.6,0.05c0.62,0,1.25-0.13,1.82-0.31c0.69-0.21,1.4-0.52,1.99-0.93c1.16-0.78,2.22-1.71,2.87-2.97
		c0.29-0.55,0.52-1.14,0.74-1.72c0.71,1.14,1.59,2.19,2.56,3.12c0.48,0.46,0.96,0.94,1.5,1.35c0.52,0.4,1.06,0.76,1.64,1.05
		c0.61,0.3,1.23,0.48,1.9,0.59c0.2,0.03,0.4,0.05,0.6,0.05c0.62,0,1.25-0.13,1.82-0.31c0.69-0.21,1.4-0.52,1.99-0.93
		c1.16-0.78,2.22-1.71,2.87-2.97c0.75-1.46,1.31-3.03,1.59-4.65c0.11-0.64,0.2-1.27,0.28-1.91c0.13-0.23,0.22-0.47,0.26-0.74
		c0.16-0.68,0.13-1.39,0.12-2.09C222.68,480.17,222.66,479.63,222.63,479.1z"/>
	<path class="st11" d="M315.43,481.39c-0.01-0.53-0.03-1.07-0.06-1.6c0-0.05-0.01-0.11-0.01-0.16c0-0.39-0.02-0.79-0.05-1.18
		c-0.06-0.9-0.16-1.79-0.28-2.68c-0.12-1.13-0.24-2.25-0.38-3.38c-0.07-0.61-0.09-1.31-0.28-1.9c-0.19-0.6-0.45-1.09-0.84-1.58
		c-0.33-0.42-0.77-0.79-1.2-1.1c-1-0.74-2.01-1.52-3.15-2.04c-0.73-0.33-1.5-0.62-2.3-0.75c-1.31-0.22-2.57-0.04-3.78,0.47
		c-2.09,0.88-3.43,2.93-4.33,4.94c-0.01-0.05-0.01-0.11-0.03-0.16c-0.19-0.6-0.45-1.09-0.84-1.58c-0.33-0.42-0.77-0.79-1.2-1.1
		c-1-0.74-2.01-1.52-3.15-2.04c-0.73-0.33-1.5-0.62-2.3-0.75c-1.31-0.22-2.57-0.04-3.78,0.47c-1.93,0.81-3.21,2.63-4.1,4.48
		c-0.01-0.05-0.01-0.1-0.03-0.15c-0.19-0.6-0.45-1.09-0.84-1.58c-0.33-0.42-0.77-0.79-1.2-1.1c-1-0.74-2.01-1.52-3.14-2.04
		c-0.73-0.33-1.5-0.62-2.3-0.75c-1.31-0.22-2.57-0.04-3.78,0.47c-2.2,0.92-3.58,3.15-4.48,5.25c-0.51,1.18-0.93,2.38-1.3,3.61
		c-0.36,1.19-0.54,2.46-0.72,3.69c-0.08,0.59-0.15,1.18-0.19,1.77c-0.05,0.59-0.1,1.19-0.07,1.78c0.1,1.99,0.32,4.04,1.18,5.87
		c0.8,1.69,1.97,3.2,3.32,4.49c0.48,0.46,0.96,0.94,1.5,1.35c0.52,0.4,1.06,0.76,1.64,1.05c0.61,0.3,1.23,0.48,1.9,0.59
		c0.2,0.03,0.4,0.05,0.6,0.05c0.62,0,1.25-0.13,1.82-0.31c0.69-0.21,1.4-0.52,1.99-0.93c1.16-0.78,2.22-1.71,2.87-2.97
		c0.21-0.4,0.36-0.83,0.53-1.24c0.71,1.13,1.58,2.17,2.54,3.09c0.48,0.46,0.96,0.94,1.5,1.35c0.52,0.4,1.06,0.76,1.64,1.05
		c0.61,0.3,1.23,0.48,1.9,0.59c0.2,0.03,0.4,0.05,0.6,0.05c0.62,0,1.25-0.13,1.82-0.31c0.69-0.21,1.4-0.52,1.99-0.93
		c1.16-0.78,2.22-1.71,2.87-2.97c0.29-0.55,0.52-1.14,0.74-1.72c0.71,1.14,1.59,2.19,2.56,3.12c0.48,0.46,0.96,0.94,1.5,1.35
		c0.52,0.4,1.06,0.76,1.64,1.05c0.61,0.3,1.23,0.48,1.9,0.59c0.2,0.03,0.4,0.05,0.6,0.05c0.62,0,1.25-0.13,1.82-0.31
		c0.69-0.21,1.4-0.52,1.99-0.93c1.16-0.78,2.22-1.71,2.87-2.97c0.75-1.46,1.31-3.03,1.59-4.65c0.11-0.64,0.2-1.27,0.28-1.91
		c0.13-0.23,0.22-0.47,0.26-0.74C315.47,482.81,315.44,482.1,315.43,481.39z"/>
	<path class="st12" d="M249.92,214.3c-7.47,9.23-16.67,16.86-26.95,22.64c0.13,0.22,0.27,0.44,0.4,0.66c1.06,1.7,2.16,3.37,3.32,5
		c1.1,1.55,2.26,3.06,3.41,4.59c1.07,1.42,2.1,2.87,3.13,4.33c0.61,0.94,1.22,1.88,1.79,2.85c0.58,0.98,1.13,1.98,1.64,3
		c1.03,2.05,2.09,4.07,3.32,6.01c1.23,1.94,2.5,3.87,3.86,5.73c1.31,1.8,2.67,3.57,3.93,5.4c0.43,0.65,0.86,1.32,1.32,1.95
		c0.45,0.62,1.01,1.14,1.77,1.35c0.21,0.06,0.42,0.08,0.62,0.08c0.28,0,0.57-0.05,0.84-0.12c0.41-0.11,0.74-0.35,1.08-0.6
		c0.58-0.43,0.99-1.1,1.39-1.69c0.26-0.38,0.49-0.78,0.7-1.19c0.38-0.71,0.73-1.44,1.08-2.16c0.79-1.52,1.65-3,2.57-4.45
		c0.81-1.17,1.65-2.31,2.55-3.42c0.86-1.07,1.73-2.12,2.6-3.18c0.82-1,1.65-1.99,2.42-3.02c0.83-1.1,1.6-2.24,2.37-3.38
		c1.45-2.09,3.04-4.06,4.69-5.99c1.9-2.14,3.83-4.24,5.61-6.47c0.46-0.58,0.88-1.19,1.31-1.8
		C268.73,234.07,258.18,225.24,249.92,214.3z"/>
</g>
<g>
	<path d="M186.28,108.01c-19.53,0-36.67,10.08-46.13,25.14c-0.02,0-0.04-0.01-0.06-0.01c-1.07-0.23-2.12-0.47-3.18-0.75
		c-1.55-0.51-3.06-1.08-4.57-1.69c-3.73-1.67-7.42-3.49-10.95-5.55c-1.68-1.06-3.33-2.17-4.99-3.27c-1.08-0.72-2.2-1.6-3.46-1.95
		c-0.68-0.19-1.32-0.33-2.03-0.19c-0.83,0.17-1.61,0.66-2.08,1.37c-1.01,1.51-0.61,3.55,0.85,4.57c0.21,0.34,0.45,0.66,0.76,0.93
		c0.26,0.24,0.56,0.43,0.87,0.57c0.79,0.94,1.56,1.89,2.37,2.81c1.13,1.28,2.43,2.42,3.72,3.54c2.69,2.33,5.66,4.29,8.69,6.15
		c2.83,1.73,5.86,3.04,8.93,4.24c-1.73,5.1-2.68,10.54-2.68,16.19c0,28.73,24.19,52.11,53.93,52.11s53.93-23.38,53.93-52.11
		S216.02,108.01,186.28,108.01z M174.71,180.14c-0.67,0.26-1.36,0.39-2.04,0.39c-0.18,0-0.35-0.01-0.53-0.03
		c-0.44-0.02-0.88-0.08-1.33-0.2c-1.27-0.33-2.3-1.15-3.13-2.13c-0.45-0.53-0.65-1.17-0.95-1.77c-0.39-0.8-0.6-1.83-0.6-2.71
		c0-1.66,0.8-3.39,2.15-4.38c1.15-0.84,2.38-1.25,3.81-1.26c0.01,0,0.02,0,0.02,0c2.69,0,4.97,2.13,5.26,4.75
		C178.71,175.47,177.57,179.02,174.71,180.14z M217.64,148.09c-0.39,1.91-1.42,3.51-2.72,4.92c-1.52,1.65-3.59,2.68-5.7,3.37
		c-1.28,0.42-2.64,0.57-4,0.57c-0.69,0-1.37-0.04-2.05-0.1c-2.1-0.21-4.12-1.05-5.93-2.1c-3.82-2.2-6.52-5.92-7.23-10.28
		c-0.55-3.38,1.02-6.77,3.24-9.23c1.54-1.7,3.58-2.74,5.71-3.5c1.14-0.4,2.26-0.72,3.46-0.9c0.55-0.08,1.11-0.12,1.67-0.12
		c1.38,0,2.78,0.23,4.09,0.6c3.84,1.08,6.86,4.08,8.36,7.71c0.61,1.47,0.98,3.04,1.2,4.62c0.08,0.54,0.11,1.08,0.1,1.61
		C217.9,146.22,217.83,147.16,217.64,148.09z"/>
	<path d="M400.27,120.13c-0.47-0.71-1.25-1.2-2.08-1.37c-0.71-0.14-1.35,0-2.03,0.19c-1.26,0.35-2.38,1.23-3.46,1.95
		c-1.65,1.1-3.3,2.21-4.99,3.27c-3.53,2.06-7.22,3.89-10.95,5.55c-1.51,0.61-3.02,1.18-4.57,1.69c-1.06,0.27-2.11,0.52-3.18,0.75
		c-0.02,0-0.04,0.01-0.06,0.01c-9.47-15.06-26.6-25.14-46.13-25.14c-29.74,0-53.93,23.38-53.93,52.11
		c0,28.73,24.19,52.11,53.93,52.11s53.93-23.38,53.93-52.11c0-5.65-0.95-11.09-2.68-16.19c3.08-1.2,6.11-2.51,8.93-4.24
		c3.02-1.86,5.99-3.82,8.69-6.15c1.29-1.12,2.59-2.26,3.72-3.54c0.81-0.92,1.58-1.87,2.37-2.81c0.31-0.14,0.61-0.33,0.87-0.57
		c0.3-0.28,0.55-0.6,0.76-0.93C400.87,123.68,401.28,121.63,400.27,120.13z M305.08,184.72c-2.9,0-5.32-2.42-5.32-5.32
		c0-2.9,2.42-5.32,5.32-5.32c2.9,0,5.32,2.42,5.32,5.32C310.4,182.3,307.98,184.72,305.08,184.72z M351.22,150.86
		c-1.01,4.4-4.01,8.2-8.09,10.15c-2.32,1.11-4.93,1.72-7.52,1.72c-1.48,0-2.95-0.2-4.37-0.63c-4.14-1.25-7.24-4.65-8.91-8.55
		c-0.7-1.61-1.21-3.27-1.39-5.03c-0.23-2.24,0.22-4.46,1.1-6.52c1.1-2.57,3.11-4.66,5.48-6.17c2.53-1.96,5.87-2.98,9.07-2.98
		c0.59,0,1.18,0.04,1.76,0.1c0.71,0.09,1.41,0.26,2.1,0.49c1.16,0.26,2.28,0.67,3.29,1.22c0.5,0.27,0.9,0.66,1.31,1.04
		c0.26,0.25,0.49,0.52,0.69,0.81c0.92,0.76,1.78,1.61,2.54,2.53c0.94,1.13,1.68,2.4,2.22,3.73c0.07,0.18,0.15,0.36,0.22,0.54
		c0.11,0.3,0.2,0.6,0.29,0.91c0.05,0.17,0.1,0.33,0.14,0.5c0.1,0.41,0.18,0.83,0.24,1.25c0.01,0.06,0.03,0.12,0.03,0.18
		C351.64,147.71,351.58,149.3,351.22,150.86z"/>
</g>
</svg>
