<?xml version="1.0" encoding="utf-8"?>
<!-- Generator: Adobe Illustrator 16.0.0, SVG Export Plug-In . SVG Version: 6.00 Build 0)  -->
<!DOCTYPE svg PUBLIC "-//W3C//DTD SVG 1.1//EN" "http://www.w3.org/Graphics/SVG/1.1/DTD/svg11.dtd" [
	<!ENTITY ns_flows "http://ns.adobe.com/Flows/1.0/">
	<!ENTITY ns_extend "http://ns.adobe.com/Extensibility/1.0/">
	<!ENTITY ns_ai "http://ns.adobe.com/AdobeIllustrator/10.0/">
	<!ENTITY ns_graphs "http://ns.adobe.com/Graphs/1.0/">
]>
<svg version="1.1" id="Layer_1" xmlns:x="&ns_extend;" xmlns:i="&ns_ai;" xmlns:graph="&ns_graphs;"
	 xmlns="http://www.w3.org/2000/svg" xmlns:xlink="http://www.w3.org/1999/xlink" xmlns:a="http://ns.adobe.com/AdobeSVGViewerExtensions/3.0/"
	 x="0px" y="0px" width="750px" height="750px" viewBox="0 0 750 750" enable-background="new 0 0 750 750" xml:space="preserve">
<g>
	<g>
		<path fill="#8BB5C6" d="M591.4,258.7c0.5,0.5,11.9,12,11,25.7c-0.4,6.4-3.3,12-8.7,17c3,3.9,7.6,11.6,6.5,20.5
			c-0.9,7.1-5.3,13.4-13,18.6c1.7,5.3,4.5,17.8-0.4,29.1c-3.3,7.7-9.6,13.4-18.6,16.9c-0.4,0.2-0.8,0.2-1.2,0.2c-0.1,0-0.2,0-0.3,0
			c9.2,3.6,18.8,5.6,28.1,6.6c10-5.9,15.1-15.7,15.3-29.3c0.1-12.2-4-23-4-23.1c-0.6-1.5,0-3.1,1.3-4c8.6-5.5,13.4-12.2,14.5-19.7
			c1.9-13.6-9.2-26.3-9.3-26.4c-0.6-0.7-0.9-1.5-0.8-2.4c0.1-0.9,0.5-1.7,1.2-2.3c6.4-5.4,9.9-11.8,10.4-18.9
			c1-14.7-10.7-28.5-12-29.9c-6.7,7.6-13.6,14.7-20.5,21.2C591,258.5,591.2,258.6,591.4,258.7z"/>
		<path fill="#5A595F" d="M707.9,325.6c-10.3,1.6-44.2-5.4-44.2-5.4c62.4-18.7,51.5-49.1,51.5-49.1c-17.7,4.3-43.8,7.1-43.8,7.1
			c69.8-43.4,32.6-81.1,32.6-81.1c-15.9,19-40.5,36.6-40.5,36.6c50.1-73.2,0.6-88.4,0.6-88.4c-8.8,32.6-27.5,62.1-48.6,86.8
			c0.2,0.1,0.3,0.2,0.5,0.3c0.6,0.7,15,16.7,13.8,34.9c-0.5,8.1-4,15.3-10.4,21.4c3.6,4.9,10.6,16.3,8.9,29.1
			c-1.2,8.9-6.3,16.6-15.3,23c2.6,8.5,9.4,36.3-8.1,52.9c19.1,0.3,36.4-3.8,46.8-9c23.9-12-5.5-22.8-5.5-22.8
			C690.4,367.4,718.3,324,707.9,325.6z"/>
	</g>
	<g>
		<path fill="#E7806F" d="M595.8,284c0.7-10.7-9-20.5-9.1-20.6c-0.2-0.2-0.3-0.5-0.5-0.7c-5.7,5.3-11.4,10.2-16.8,14.8
			c0.2,3.5,0.3,7.1,0.5,10.7c1.1,30.8,1.1,61.7-1.6,91.2c6-2.8,10.2-7,12.5-12.3c5.2-12-0.5-26.5-0.6-26.7c-0.6-1.5,0-3.2,1.4-4.1
			c7.3-4.4,11.4-9.5,12.1-15.2c1.2-9.4-6.9-17.7-6.9-17.8c-0.7-0.7-1-1.6-0.9-2.5c0.1-0.9,0.5-1.8,1.3-2.4
			C592.5,294.2,595.5,289.3,595.8,284z"/>
	</g>
	<path fill="#F3C170" d="M379.6,275c7,0,14.5,0.5,19.6,0.9l-14.7,18.3l-12.5-19C374.2,275.1,376.7,275,379.6,275z M353.6,545.5
		c-23.2-9.5-35.5,6.2-39.6,13.2c-4.1,6.9-14.9,35.4-1,37.1c13.9,1.7,15-16.2,15-16.2s-1.2,19.7,11,19.1
		c12.1-0.6,13.9-17.9,13.9-17.9s-0.6,17.9,11,15c11.6-2.9,11.8-15.4,8.3-28.3C369,555.4,360.3,548.3,353.6,545.5z M484.4,567.5
		c-3.3-12.1-12-19.2-18.7-22c-23.2-9.5-35.5,6.2-39.6,13.2c-4,6.9-14.9,35.4-1,37.1c13.9,1.7,15-16.2,15-16.2s-1.2,19.7,11,19.1
		s13.9-17.9,13.9-17.9s-0.6,17.9,11,15C487.7,592.9,487.9,580.5,484.4,567.5z"/>
	<path d="M612.9,286c-0.7,0.6-1.1,1.4-1.2,2.3c-0.1,0.9,0.2,1.8,0.8,2.4c0.1,0.1,11.2,12.8,9.3,26.4c-1,7.5-5.9,14.2-14.5,19.7
		c-1.3,0.8-1.8,2.5-1.3,4c0,0.1,4.2,10.9,4,23.1c-0.2,13.6-5.3,23.4-15.3,29.3c-9.3-0.9-18.9-3-28.1-6.6c0.1,0,0.2,0,0.3,0
		c0.4,0,0.8-0.1,1.2-0.2c9-3.5,15.3-9.2,18.6-16.9c4.9-11.3,2-23.8,0.4-29.1c7.7-5.2,12.1-11.4,13-18.6c1.1-8.9-3.5-16.6-6.5-20.5
		c5.4-4.9,8.3-10.6,8.7-17c0.9-13.7-10.5-25.2-11-25.7c-0.2-0.2-0.4-0.2-0.6-0.4c6.9-6.6,13.8-13.7,20.5-21.2
		c1.3,1.5,13,15.3,12,29.9C622.8,274.2,619.3,280.6,612.9,286z M181.8,401.5c-9-3.5-15.3-9.2-18.6-16.9c-4.9-11.3-2-23.8-0.4-29.1
		c-7.7-5.2-12.1-11.4-13-18.6c-1.1-8.9,3.5-16.6,6.5-20.5c-5.4-4.9-8.3-10.6-8.7-17c-0.9-13.7,10.5-25.2,11-25.7
		c0.2-0.2,0.4-0.2,0.6-0.4c-6.9-6.6-13.8-13.7-20.5-21.2c-1.3,1.5-13,15.3-12,29.9c0.5,7.2,4,13.5,10.4,18.9
		c0.7,0.6,1.1,1.4,1.2,2.3c0.1,0.9-0.2,1.8-0.8,2.4c-0.1,0.1-11.2,12.8-9.3,26.4c1,7.5,5.9,14.2,14.5,19.7c1.3,0.8,1.9,2.5,1.3,4
		c0,0.1-4.2,10.9-4,23.1c0.1,13.6,5.3,23.4,15.3,29.3c9.3-0.9,18.9-3,28.1-6.6c-0.1,0-0.2,0-0.3,0
		C182.6,401.7,182.2,401.7,181.8,401.5z M479.5,237.9c0.2,2.1-1.4,4-3.5,4.2c-0.2,0-0.5,0-0.7,0c-1.8-0.2-3.3-1.6-3.5-3.5
		c0-0.1-1.5-13.6-9.4-14.3c-4.1-0.4-9,0.6-11.1,11.3c14.8,4.8,25.9,19.3,25.9,36c0,19.5-16.5,35.4-36.8,35.4
		c-20.5,0-37.1-15.7-37.1-35.1c0-1,0.1-1.9,0.2-2.8c-12.6-4.7-27.3-3.1-35-1.6c0.2,1.4,0.3,2.8,0.3,4.2c0,19.5-16.5,35.4-36.8,35.4
		c-20.5,0-37.2-15.7-37.2-35.1c0-12.6,7.2-24.5,17.6-31.5c-1-12.2-6.3-13.7-10.7-13.7c-8.4,0-11.3,14.1-11.3,14.2
		c-0.4,2-2.1,3.4-4,3.4c-0.3,0-0.5,0-0.8-0.1c-2.2-0.4-3.7-2.6-3.3-4.8c0.2-0.9,4.1-20.9,19.4-20.9c6,0,16,2.4,18.5,17.9
		c3.9-1.5,8-2.3,12.3-2.3c14.5,0,27.9,9.6,33.7,23.8c8.4-1.6,24.8-3.5,39.7,1.6c5.5-14.3,19.8-25.4,35.2-25.4c1,0,1.9,0.1,2.9,0.1
		c3.3-16.4,13.5-18,19.4-17.5C477.4,217.9,479.4,237.1,479.5,237.9z M358.7,271.5c0-3.3-0.6-6.6-1.8-9.8c-4.1-10.7-14-18-24.6-18
		c-14.3,0-27.7,13.6-27.7,28.1c0,13.9,12.2,25.2,27.3,25.2C346.6,297,358.7,285.6,358.7,271.5z M440.8,243.8
		c-14.3,0-27.7,13.6-27.7,28.1c0,13.9,12.2,25.2,27.3,25.2c14.9,0,26.9-11.4,26.9-25.5C467.2,256.7,454.9,243.8,440.8,243.8z"/>
	<path fill="#A0D292" d="M653.6,564.8c0,0-9.1,28.1-31,37.3c-21.9,9.2-48.3-4.1-48.3-4.1s9.1-28.1,31-37.3
		C627.2,551.5,653.6,564.8,653.6,564.8z"/>
	<path fill="#C6B6AB" d="M350.7,264.1c0.9,2.4,1.4,4.9,1.4,7.4c0,10.4-9.1,18.9-20.3,18.9c-5.5,0-10.5-2-14.2-5.1
		C330.7,281.5,342.2,274,350.7,264.1C350.7,264.1,350.7,264.1,350.7,264.1z M420.2,276.3c2.2,8.1,10.4,14.2,20,14.2
		c2.4,0,4.7-0.4,6.9-1.1C437.1,286.9,428,282.4,420.2,276.3z M557.4,400.3c-1,0-2.1,0.3-2.9,1.1l-15.4,14l-25-21.8
		c-1.6-1.4-4.1-1.3-5.6,0.2l-27.7,27.7l-26.8-24.9c-1.6-1.5-4.2-1.5-5.8,0.1l-26.9,27.6l-27.5-25.3c-1.6-1.5-4.1-1.4-5.7,0.1
		l-28.5,28.5l-26.8-24.5c-1.6-1.5-4.1-1.4-5.7,0.1l-25,24.3l-23.8-25.1c-0.8-0.9-2-1.3-3.2-1.3c-1.2,0-2.3,0.6-3,1.5l-14.6,14.1
		c0,0-0.1,0.1-1.6-0.7c-31.5-17.7-64.5-17-64.5-17s-4.2-24.7-5.3-54.7c-0.8-24,1.5-49.3,1-62.4c-1.7-38.8,5.1-100.4,41.8-144.1
		c-9.3,0.9-30.1,2.2-29.4-5.6c1.6-16.9,37.7-17.7,37.7-17.7s-9.2-5.7-6.2-11.5c6-11.3,24.5-3.8,34.9,1.7v0.2
		c0.8,0.5,1.5,0.9,2.1,1.3c0.8,0.6,1.9,0.7,2.9,0.4c1-0.3,1.7-1,2.1-2c1.9-4.6,4.3-7,7.3-7.4c9.3-1.3,23.8,14.2,28.2,19.8
		c0.8,1,2,1.4,3.2,1.3c1.2-0.2,2.2-1,2.7-2.1c1.5-3.7,3.2-5.7,5.2-5.9c6.4-0.5,17.5,13.6,23.4,23.7c0.8,1.3,2.3,1.9,3.8,1.6
		c1.5-0.4,2.5-1.7,2.5-3.2c0-1,0.5-4.3,2.3-5.6c1.5-1.1,4-0.5,5.8,0.2c10.1,3.6,19,22.6,21.7,29.7c0.5,1.4,1.8,2.2,3.2,2.2
		c0.3,0,0.5-0.1,0.8-0.1c0.3,0.1,0.5,0.1,0.8,0.1c1.4,0,2.7-0.8,3.2-2.2c2.4-6.5,10.7-24.1,20-27.4c1.6-0.6,3.9-1.1,5.2-0.2
		c1.6,1.1,2,4,2,4.9c0,1.5,1.1,2.9,2.5,3.2c1.5,0.4,3-0.3,3.8-1.6c5.4-9.3,15.7-22.4,21.5-21.9c1.7,0.1,3.3,1.9,4.6,5.3
		c0.4,1.1,1.5,1.9,2.7,2.1c1.2,0.2,2.4-0.3,3.2-1.3c6-7.6,18.3-19.3,25.9-18.3c1,0.1,4.1,0.6,6.6,6.7c0.4,0.9,1.2,1.7,2.1,2
		c1,0.3,2,0.2,2.9-0.4c1.1-0.7,2.8-1.7,4.6-2.8c0.1,0,0.1,0.1,0.2,0.1c9.9-4.8,24.7-9.8,29.8-0.2c2.9,5.4-5.7,10.7-5.7,10.7
		s33.5,0.7,35,16.4c0.7,7.1-18.5,7.1-27.6,6.7c4.8,7.1,9.2,14.9,13,23.6c13.9,31.3,20.5,75.8,22.2,123.9
		C562.9,324.3,563,363.2,557.4,400.3z M428.5,329.5c-1.9-3.7-5.6-5.9-10-5.9c-8.6,0-21.4,9.4-30.3,17.1c-0.7-0.1-1.4-0.1-2.1-0.1
		c-1,0-1.9,0.1-2.8,0.2c-9-7.7-21.7-17.2-30.4-17.2c-4.4,0-8,2.1-10,5.9c-5.7,11-6.9,35.7-2.2,44.8c2.2,4.3,5.4,5.3,7.1,5.6
		c1.2,0.2,2.4,0.3,3.7,0.3h0c11.7,0,23.6-7.5,31.6-13.8c1,0.1,2,0.2,2.9,0.2c0.8,0,1.6-0.1,2.4-0.1c7.9,6.3,19.9,13.8,31.5,13.8
		c1.3,0,2.5-0.1,3.7-0.3c1.7-0.2,5-1.3,7.1-5.6C435.4,365.1,434.2,340.5,428.5,329.5z M532.5,226.2c0-37.1-31.4-69.7-67.1-69.7
		c-36.5,0-69.7,33.5-69.7,70.3c0,8.6,1.8,16.8,5.1,24.3c-5.3-1.2-11-1.8-17-1.8c-5.3,0-10.1,0.5-14.1,1c-1.8-3.3-4-6.4-6.5-9.1
		c1.8-5.8,2.8-12,2.8-18.4c0-37.1-31.4-69.7-67.1-69.7c-36.5,0-69.7,33.5-69.7,70.3c0,33.5,27.4,61.1,62.2,64.2
		c6.6,15.1,22.2,25.7,40.4,25.7c18.2,0,33.7-10.9,40.2-26.2l9.5,14.4c0.6,0.9,1.5,1.4,2.6,1.5c0.1,0,0.1,0,0.2,0
		c1,0,1.9-0.5,2.6-1.2l12.5-15.6c6.2,15.9,22.2,27.2,41,27.2c17.2,0,32-9.7,39-23.7C509.7,283.2,532.5,257.3,532.5,226.2z"/>
	<path fill="#E7806F" d="M585.8,300.7c-0.1,0.9,0.3,1.9,0.9,2.5c0.1,0.1,8.1,8.4,6.9,17.8c-0.7,5.7-4.8,10.8-12.1,15.2
		c-1.4,0.8-2,2.6-1.4,4.1c0.1,0.1,5.8,14.7,0.6,26.7c-2.3,5.3-6.5,9.5-12.5,12.3c2.8-29.5,2.7-60.3,1.6-91.2
		c-0.1-3.6-0.3-7.2-0.5-10.7c5.5-4.5,11.1-9.5,16.8-14.8c0.1,0.3,0.3,0.5,0.5,0.7c0.1,0.1,9.8,9.9,9.1,20.6
		c-0.4,5.3-3.3,10.1-8.8,14.3C586.3,298.9,585.8,299.8,585.8,300.7z M163,313.4c0.7,0.6,1.2,1.4,1.3,2.4c0.1,0.9-0.3,1.9-0.9,2.5
		c-0.1,0.1-8.1,8.4-6.9,17.8c0.7,5.7,4.8,10.8,12.1,15.2c1.4,0.8,2,2.6,1.4,4.1c-0.1,0.1-5.8,14.7-0.6,26.7
		c2.3,5.3,6.5,9.5,12.5,12.3c-2.8-29.5-2.7-60.3-1.6-91.2c0.1-3.6,0.3-7.2,0.5-10.7c-5.5-4.5-11.1-9.5-16.8-14.8
		c-0.1,0.3-0.3,0.5-0.5,0.7c-0.1,0.1-9.8,9.9-9.1,20.6C154.5,304.4,157.5,309.2,163,313.4z M167.3,511.1l-0.4-0.9
		c-15.8,5.4-50,19.1-51.7,36.8c-1.9,20.2,44.7,3,44.7,3s-19.8,16.5-9.5,24.7c10.8,8.7,40.3-6.1,40.3-6.1s-10.8,11.3-2.6,20
		c9.2,9.7,35.1-6.3,48.7-15.8C204.3,559,179.5,537.6,167.3,511.1z M390.1,347.8c-3.4-1.1-6.8-0.5-8.8,0.1
		c-9.8-8.7-28.4-23.4-32.6-15.4c-5.8,11.1-5.9,39.9,0,40.8c11.5,1.7,24.9-7.8,32.5-14.2c4.1,1.2,7.2,0.7,8.9,0.1
		c7.7,6.4,21,15.7,32.4,14.1c5.9-0.9,5.8-29.7,0-40.8C418.4,324.5,399.9,339.2,390.1,347.8z"/>
	<path fill="#5A595F" d="M646.2,362c0,0,29.4,10.7,5.5,22.8c-10.4,5.2-27.7,9.3-46.8,9c17.5-16.6,10.7-44.4,8.1-52.9
		c9-6.4,14.1-14.1,15.3-23c1.7-12.7-5.3-24.1-8.9-29.1c6.4-6.1,9.9-13.3,10.4-21.4c1.2-18.2-13.2-34.3-13.8-34.9
		c-0.1-0.2-0.3-0.2-0.5-0.3c21.1-24.7,39.8-54.2,48.6-86.8c0,0,49.5,15.1-0.6,88.4c0,0,24.5-17.6,40.5-36.6c0,0,37.2,37.7-32.6,81.1
		c0,0,26.1-2.8,43.8-7.1c0,0,11,30.4-51.5,49.1c0,0,33.8,7,44.2,5.4C718.3,324,690.4,367.4,646.2,362z M136.9,355.9
		c-8.9-6.4-14.1-14.1-15.3-23c-1.7-12.7,5.3-24.1,8.9-29.1c-6.4-6.1-9.9-13.3-10.4-21.4c-1.2-18.2,13.2-34.3,13.8-34.9
		c0.1-0.2,0.3-0.2,0.5-0.3c-21.1-24.7-39.8-54.2-48.6-86.8c0,0-49.5,15.1,0.6,88.4c0,0-24.5-17.6-40.5-36.6c0,0-37.2,37.7,32.6,81.1
		c0,0-26.1-2.8-43.8-7.1c0,0-11,30.4,51.5,49.1c0,0-33.8,7-44.2,5.4c-10.3-1.6,17.5,41.8,61.7,36.4c0,0-29.4,10.7-5.5,22.8
		c10.4,5.2,27.7,9.3,46.8,9C127.5,392.2,134.3,364.4,136.9,355.9z M536.3,424l-24.8-21.6l-27.8,27.8c-1.6,1.6-4.1,1.6-5.7,0.1
		l-26.7-24.9L424.4,433c-1.6,1.6-4.1,1.7-5.7,0.2l-27.6-25.4l-28.5,28.5c-1.6,1.6-4.1,1.6-5.7,0.1l-26.8-24.6l-25.2,24.5
		c-0.8,0.8-1.9,1.2-3,1.2c-1.1,0-2.2-0.5-2.9-1.3l-23.4-24.7c0,0-11.4,12.2-18.9,19.9c-19.2-21.5-64.4-22.6-64.4-22.6
		c3.8,33.1-11.5,81.5-16.1,95.1c-0.4,0.2-0.8,0.3-1.2,0.5c0,2.1-0.1,3.2-0.1,3.2c17.9,39,65.9,65.6,123.5,72.7
		c1.6-12.7,8.5-25.6,8.6-25.8c3.5-6.1,13.9-20.2,32.9-20.2c5.4,0,11.1,1.2,16.9,3.6c8.7,3.6,19.5,12.7,23.5,27.4
		c1.2,4.2,1.8,8.2,2.1,11.8c10.2-2,20.5-4.6,30.6-7.9c2.6-8.2,6-14.5,6.1-14.6c3.6-6.1,13.9-20.2,32.9-20.2c5.4,0,11.1,1.2,16.9,3.6
		c1.6,0.7,3.3,1.5,5,2.6c5.1-3.2,10-6.7,14.9-10.3c38.9-29.2,57.9-72,66.7-118.6L541.8,424C540.3,425.4,537.9,425.4,536.3,424z"/>
	<path fill="#938072" d="M288.9,92.1c7.3-3.5,15.1-6.6,23.4-9.4c40.1-13.4,95.2-8.3,95.2-8.3s33.4,1.2,68.4,20.7
		c-9.8,1-20.2,11.1-25.4,16.9c-2.1-3-4.8-4.6-7.9-4.8c-8.9-0.7-18.5,11.1-24,19c-0.6-0.9-1.5-1.8-2.5-2.6c-3-2.1-6.8-2.3-11.4-0.6
		c-10.1,3.7-17.9,17.7-21.6,25.7c-3.9-8.5-12.3-24.1-23.3-28c-4.8-1.7-8.9-1.5-12,0.7c-1.2,0.8-2.1,1.9-2.9,3
		c-5.8-8.5-16.2-21.5-25.8-20.7c-3.4,0.3-6.3,2.1-8.5,5.3C306,103.9,297.6,95.6,288.9,92.1z M649.3,664.8
		c-10.1-11.6-54.1-55.7-156.8-73.1c-0.4,0.9-0.8,1.7-1.2,2.5c-2.8,4.8-7.4,8.2-13.2,9.6c-5.1,1.3-9.8,0.3-13.5-2.5
		c-3.2,3.1-7.5,5.4-13,5.6c-0.3,0-0.6,0-0.9,0c-4.8,0-9-1.8-12.2-5.2c-0.2-0.3-0.5-0.5-0.7-0.8c-3.6,2.4-8,3.7-13.7,3
		c-5.4-0.7-9.7-3.7-12-8.4c-1.7-3.4-2.2-7.3-2-11.4c-9.4-0.3-18.7-0.4-27.8-0.3c-0.4,4-1.4,7.5-3.1,10.4c-2.8,4.8-7.4,8.2-13.2,9.6
		c-5.1,1.3-9.8,0.3-13.5-2.5c-3.2,3.1-7.5,5.4-13,5.6c-0.3,0-0.6,0-0.9,0c-4.8,0-9-1.8-12.2-5.2c-0.2-0.3-0.5-0.5-0.7-0.8
		c-3.6,2.4-8,3.7-13.7,3c-5.4-0.7-9.7-3.7-12-8.4c-0.9-1.7-1.4-3.6-1.7-5.7c-49.2,6.9-93,19-133.2,33.4c0,0-10.8,12.9,3,22.4
		c0,0,238.5-83.6,381.2,7.8c0,0,7.3,3,9.2-5.6c0,0-51.7-30.2-50.5-36.3c1.2-6.4,88.7,13.2,134.9,65
		C642.8,676.6,653.7,669.8,649.3,664.8z"/>
</g>
</svg>
