<svg height="512" viewBox="0 0 64 64" width="512" xmlns="http://www.w3.org/2000/svg"><g id="martini-party-happy-dating-drink"><circle cx="13" cy="13" fill="#ffeb99" r="10"/><path d="m23 13a10 10 0 0 1 -18.78 4.78 9.9 9.9 0 0 0 4.78 1.22 10 10 0 0 0 10-10 9.9 9.9 0 0 0 -1.22-4.78 9.984 9.984 0 0 1 5.22 8.78z" fill="#ebbf00"/><path d="m54 14-4.43 4.63c-3.48-.47-4.79-1.47-10.09-1.5h-.26c-7.22 0-7.22 1.74-14.43 1.74-6.17 0-7.06-1.27-11.71-1.65l-3.08-3.22z" fill="#46f8ff"/><path d="m44 61h-24l4-4h16z" fill="#acabb1"/><path d="m44 61h-4l-4-4h4z" fill="#787680"/><path d="m49.57 18.63-17.57 18.37-18.92-19.78c4.65.38 5.54 1.65 11.71 1.65 7.21 0 7.21-1.74 14.43-1.74h.26c5.3.03 6.61 1.03 10.09 1.5z" fill="#2488ff"/><path d="m54 14-4.43 4.63a28.129 28.129 0 0 1 -3.35-.68l3.78-3.95z" fill="#00d7df"/><path d="m49.57 18.63-17.57 18.37-2-2.09 15.57-16.28.65-.68a28.129 28.129 0 0 0 3.35.68z" fill="#005ece"/><path d="m36.34 20.76a4 4 0 0 1 -2.34 7.24 4 4 0 0 1 0-8 3.967 3.967 0 0 1 2.34.76z" fill="#ff7956"/><path d="m54 13h-9.61l6.16-7.11 11.69-2.92-.48-1.94-12 3a1.017 1.017 0 0 0 -.52.32l-7.5 8.65h-17.74a11.078 11.078 0 1 0 -6.68 10.09l13.68 14.31v18.6h-7a1.033 1.033 0 0 0 -.71.29l-4 4a1 1 0 0 0 -.21 1.09.987.987 0 0 0 .92.62h24a.987.987 0 0 0 .92-.62 1 1 0 0 0 -.21-1.09l-4-4a1.033 1.033 0 0 0 -.71-.29h-7v-18.6l21.72-22.71a.983.983 0 0 0 .2-1.08 1 1 0 0 0 -.92-.61zm-13.99 2-.98 1.13a27.132 27.132 0 0 0 -7.26.9 25.593 25.593 0 0 1 -6.98.84 25.092 25.092 0 0 1 -6.99-.85 28.233 28.233 0 0 0 -4.25-.76l-1.21-1.26zm-27.01 7a9 9 0 1 1 9-9h-12a1 1 0 0 0 -.92.61.983.983 0 0 0 .2 1.08l6.54 6.84a9.015 9.015 0 0 1 -2.82.47zm2.8-3.38c.53.11 1.02.23 1.53.35a27.452 27.452 0 0 0 7.46.9 27.4 27.4 0 0 0 7.44-.9 25.555 25.555 0 0 1 5.02-.79l-1.13 1.31a4.89 4.89 0 0 0 -2.12-.49 4.986 4.986 0 0 0 -4.17 7.74l-2.98 3.43zm21.2 5.38a3 3 0 1 1 -3-3 3.009 3.009 0 0 1 3 3zm2.59 34 2 2h-19.18l2-2zm-7.59-22.45-3.76-3.92 3-3.47a4.94 4.94 0 0 0 2.76.84 4.978 4.978 0 0 0 3.72-8.31l2.21-2.55a24.853 24.853 0 0 1 6.26.83c.44.11.89.22 1.37.32zm17.21-17.99c-.94-.15-1.73-.33-2.54-.53a26.646 26.646 0 0 0 -5.06-.83l1.05-1.2h9z"/></g></svg>